<svg width="20" height="20" viewBox="0 0 20 20" fill="none" xmlns="http://www.w3.org/2000/svg">
<g clip-path="url(#clip0_229_2840)">
<path fill-rule="evenodd" clip-rule="evenodd" d="M2.43855 0.418595C2.16912 0.158369 1.80826 0.0143772 1.43369 0.0176321C1.05912 0.020887 0.700819 0.171128 0.43595 0.435997C0.171081 0.700866 0.0208399 1.05917 0.017585 1.43374C0.0143301 1.8083 0.158322 2.16916 0.418548 2.4386L7.97998 10L0.418548 17.5615C0.282105 17.6932 0.173273 17.8509 0.098403 18.0252C0.023533 18.1995 -0.0158759 18.3869 -0.0175242 18.5766C-0.0191725 18.7663 0.0169728 18.9544 0.0888026 19.13C0.160632 19.3055 0.266708 19.465 0.400841 19.5992C0.534973 19.7333 0.694476 19.8394 0.870042 19.9112C1.04561 19.983 1.23372 20.0192 1.42341 20.0175C1.61309 20.0159 1.80055 19.9765 1.97484 19.9016C2.14913 19.8267 2.30677 19.7179 2.43855 19.5815L9.99998 12.02L17.5614 19.5815C17.8308 19.8417 18.1917 19.9857 18.5663 19.9824C18.9408 19.9792 19.2991 19.8289 19.564 19.5641C19.8289 19.2992 19.9791 18.9409 19.9824 18.5663C19.9856 18.1917 19.8416 17.8309 19.5814 17.5615L12.02 10L19.5814 2.4386C19.8416 2.16916 19.9856 1.8083 19.9824 1.43374C19.9791 1.05917 19.8289 0.700866 19.564 0.435997C19.2991 0.171128 18.9408 0.020887 18.5663 0.0176321C18.1917 0.0143772 17.8308 0.158369 17.5614 0.418595L9.99998 7.98002L2.43855 0.418595Z" fill="white"/>
</g>
<defs>
<clipPath id="clip0_229_2840">
<rect width="20" height="20" fill="white"/>
</clipPath>
</defs>
</svg>
