<svg width="20" height="21" viewBox="0 0 20 21" fill="none" xmlns="http://www.w3.org/2000/svg">
<g clip-path="url(#clip0_31_435)">
<path fill-rule="evenodd" clip-rule="evenodd" d="M2.43855 0.918595C2.16912 0.658369 1.80826 0.514377 1.43369 0.517632C1.05912 0.520887 0.700819 0.671128 0.43595 0.935997C0.171081 1.20087 0.0208399 1.55917 0.017585 1.93374C0.0143301 2.3083 0.158322 2.66916 0.418548 2.9386L7.97998 10.5L0.418548 18.0615C0.282105 18.1932 0.173273 18.3509 0.098403 18.5252C0.023533 18.6995 -0.0158759 18.8869 -0.0175242 19.0766C-0.0191725 19.2663 0.0169728 19.4544 0.0888026 19.63C0.160632 19.8055 0.266708 19.965 0.400841 20.0992C0.534973 20.2333 0.694476 20.3394 0.870042 20.4112C1.04561 20.483 1.23372 20.5192 1.42341 20.5175C1.61309 20.5159 1.80055 20.4765 1.97484 20.4016C2.14913 20.3267 2.30677 20.2179 2.43855 20.0815L9.99998 12.52L17.5614 20.0815C17.8308 20.3417 18.1917 20.4857 18.5663 20.4824C18.9408 20.4792 19.2991 20.3289 19.564 20.0641C19.8289 19.7992 19.9791 19.4409 19.9824 19.0663C19.9856 18.6917 19.8416 18.3309 19.5814 18.0615L12.02 10.5L19.5814 2.9386C19.8416 2.66916 19.9856 2.3083 19.9824 1.93374C19.9791 1.55917 19.8289 1.20087 19.564 0.935997C19.2991 0.671128 18.9408 0.520887 18.5663 0.517632C18.1917 0.514377 17.8308 0.658369 17.5614 0.918595L9.99998 8.48002L2.43855 0.918595Z" fill="black"/>
</g>
<defs>
<clipPath id="clip0_31_435">
<rect width="20" height="20" fill="white" transform="translate(0 0.5)"/>
</clipPath>
</defs>
</svg>
