<?xml version="1.0" encoding="UTF-8"?>
<svg id="Layer_2" data-name="Layer 2" xmlns="http://www.w3.org/2000/svg" viewBox="0 0 132.98 155.8">
  <defs>
    <style>
      .cls-1 {
        fill: none;
        stroke: #000;
      }

      .cls-1, .cls-2 {
        stroke-linecap: round;
        stroke-linejoin: round;
      }

      .cls-2 {
        fill: #fff;
        stroke: #ff7f00;
      }

      .cls-3 {
        fill: #ff7f00;
      }

      .cls-4 {
        font-family: GmarketSansTTFBold, 'Gmarket Sans TTF';
        font-size: 13.22px;
      }
    </style>
  </defs>
  <g id="gnb_2depth">
    <g>
      <path class="cls-2" d="M28.67,76.98c-3.15,.43-6.32,.61-9.47,1.12-3.25,.52-6.49,1.19-9.61,2.22-2.63,.87-5.47,2-7.44,4.03-1.66,1.71-2.11,3.94-1.17,6.14,5.02,11.76,20.36,13.91,29.76,12.6,9.4-1.31,3.41-8.68,3.41-8.68-1.95,.42-3.94,.73-5.92,1-3.75,.5-7.6,.83-11.38,.45-3.99-.4-8.75-2.62-9.83-6.91-.43-1.69,.66-2.95,2.09-3.69,2.73-1.41,6.18-1.78,9.2-2.02,5.47-.44,10.92,.47,16.38,.69-.23-1.21-.46-2.41-.68-3.62-.17-.88-.33-1.75-.5-2.63-.06-.32-.12-.65-.18-.97s-.02-.45-.31-.52c-.43-.1-1.36,.29-1.8,.38-.6,.11-1.21,.22-1.81,.31-.25,.04-.5,.07-.76,.11Z"/>
      <text class="cls-4" transform="translate(20.58 34.76) rotate(-46.27)"><tspan x="0" y="0">H</tspan></text>
      <text class="cls-4" transform="translate(28.47 26.89) rotate(-37.49)"><tspan x="0" y="0">i</tspan></text>
      <text class="cls-4" transform="translate(31.54 24.45) rotate(-31.65)"><tspan x="0" y="0">-</tspan></text>
      <text class="cls-4" transform="translate(36.43 21.13) rotate(-21.7)"><tspan x="0" y="0">D</tspan></text>
      <text class="cls-4" transform="translate(46.65 17.12) rotate(-9.69)"><tspan x="0" y="0">a</tspan></text>
      <text class="cls-4" transform="translate(55.83 15.56) rotate(.68)"><tspan x="0" y="0">y</tspan></text>
      <text class="cls-4" transform="translate(64.21 15.8) rotate(7.57)"><tspan x="0" y="0"> </tspan></text>
      <text class="cls-4" transform="translate(67.63 15.89) rotate(16.49)"><tspan x="0" y="0">C</tspan></text>
      <text class="cls-4" transform="translate(78.84 19.33) rotate(28.65)"><tspan x="0" y="0">o</tspan></text>
      <text class="cls-4" transform="translate(86.48 23.62) rotate(36.89)"><tspan x="0" y="0">f</tspan></text>
      <text class="cls-4" transform="translate(90.87 26.9) rotate(43.34)"><tspan x="0" y="0">f</tspan></text>
      <text class="cls-4" transform="translate(94.73 30.34) rotate(51.42)"><tspan x="0" y="0">e</tspan></text>
      <text class="cls-4" transform="translate(100.17 37.11) rotate(61.6)"><tspan x="0" y="0">e</tspan></text>
      <path class="cls-2" d="M43.8,111.12s14.96,29.04,28.74,27.46c0,0-8.99,10.41-.58,15.94,8.41,5.53,11.41-19.72,11.41-19.72,0,0-1.87-4.68-9.84-3.15,0,0-19.92-11.48-24.18-22.51-4.26-11.03-5.55,2-5.55,2Z"/>
      <path class="cls-2" d="M23.43,83.62c5.09-24.05,22.85-40.66,39.67-37.1,16.82,3.56,26.32,25.94,21.23,49.99-5.09,24.05-22.56,27.18-39.37,23.62-16.82-3.56-26.61-12.47-21.52-36.51Z"/>
      <path class="cls-2" d="M71.73,84.54c11.74-1.44,27.25-8.49,31.66-20.39,1.72-4.66,1.37-9.96,3.54-14.43,.81-1.68,2.9-3.36,4.34-2.16,.42,.35,.65,.88,.83,1.41,1.07,3.1,.85,6.63-.6,9.57,.76-1.54,1.18-3.48,1.87-5.11,.76-1.79,1.61-3.53,2.56-5.23,.79-1.41,4.45-8.99,6.31-5.29,2.1,4.19-1.99,8.89-4.61,11.77,1.69-2.01,3.55-3.88,5.56-5.58,1.22-1.03,2.22-2.31,3.52-3.26,.66-.48,2.26-1.68,2.63-.25,.46,1.79-.87,4.71-1.74,6.25-1.48,2.63-3.76,4.86-6.43,6.27,2.71-1.55,5.64-2.7,8.68-3.4,.81-.19,1.82-.28,2.34,.37,.46,.56,.3,1.4-.01,2.05-1.54,3.18-5.67,3.92-9.19,4.26,.67-.06,1.4-.44,2.07-.59,.76-.17,1.54-.29,2.32-.36,1.04-.09,2.09-.16,3.13-.07,1.89,.17,.95,.93-.07,1.83-1.48,1.3-3.1,2.54-4.87,3.44-2.51,1.28-5.23,2.12-7.98,2.69-1.63,.34-3.3,.6-4.85,1.22-6.42,2.56-11.1,8.26-16.69,12.12-5.97,4.12-13.19,6.84-20.18,8.61"/>
      <g>
        <path class="cls-2" d="M58.4,52.65s-19.54-18.15-28.85-4.07c0,0-2.16,6.33-2.19,8.16s49.67-1.4,58.76,9.34c0,0,18.41-22.23-10.94-34.73-29.35-12.49-34.09,12.01-34.09,12.01"/>
        <circle class="cls-3" cx="45.92" cy="60.49" r="8.51"/>
        <circle class="cls-3" cx="33.72" cy="58.79" r="8.51"/>
        <circle class="cls-3" cx="58.49" cy="62.24" r="8.51"/>
        <circle class="cls-3" cx="72.1" cy="64.14" r="8.51"/>
        <circle class="cls-3" cx="80.24" cy="65.27" r="8.51"/>
      </g>
      <path class="cls-2" d="M53.05,111.61s-30.5,11.71-30.43,25.58c0,0-9.37-10.07-15.78-2.31-6.41,7.76,18.36,13.49,18.36,13.49,0,0,4.86-1.35,4.21-9.44,0,0,13.58-18.55,25.01-21.58,2.86-.76,4.2-1.5,4.61-2.18"/>
      <path d="M46.32,80.35c-.22,1.85-1.67,3.2-3.24,3.02s-2.66-1.84-2.44-3.69,1.25-2.15,2.82-1.96,3.08,.78,2.86,2.63Z"/>
      <ellipse cx="36.04" cy="75.35" rx="2.52" ry="1.78" transform="translate(-43.03 102.25) rotate(-83.23)"/>
      <ellipse cx="54.78" cy="76.16" rx="2.52" ry="1.78" transform="translate(-27.31 121.58) rotate(-83.23)"/>
      <path class="cls-1" d="M34.97,86.87s-5.81,2.32,0,5.61c5.81,3.29,10.71-4.9,10.71-4.9,0,0,9.1,7.74,11.87,3.81,2.77-3.94-2.45-6.19-2.45-6.19"/>
    </g>
  </g>
</svg>