<?xml version="1.0" encoding="UTF-8"?>
<svg id="Layer_2" data-name="Layer 2" xmlns="http://www.w3.org/2000/svg" xmlns:xlink="http://www.w3.org/1999/xlink" viewBox="0 0 300 100">
  <defs>
    <style>
      .cls-1 {
        clip-path: url(#clippath);
      }

      .cls-2 {
        fill: none;
      }

      .cls-3 {
        fill: #ff7f00;
      }
    </style>
    <clipPath id="clippath">
      <rect class="cls-2" width="300" height="100"/>
    </clipPath>
  </defs>
  <g id="design">
    <g class="cls-1">
      <g>
        <g>
          <path d="M120.42,26.04v20.23h-4.52v-8.22h-8.94v8.22h-4.52V26.04h4.52v8.02h8.94v-8.02h4.52Z"/>
          <path d="M128.52,26.04v20.23h-4.52V26.04h4.52Z"/>
          <path d="M140.93,34.7v3.72h-9.51v-3.72h9.51Z"/>
          <path d="M143.83,26.04h7.84c2.2,0,4.12,.43,5.76,1.28,1.64,.85,2.9,2.04,3.77,3.57,.88,1.53,1.32,3.29,1.32,5.27s-.44,3.74-1.32,5.27c-.88,1.53-2.13,2.72-3.77,3.56s-3.56,1.27-5.76,1.27h-7.84V26.04Zm7.92,16.23c1.95,0,3.48-.53,4.59-1.6,1.11-1.07,1.66-2.57,1.66-4.51s-.55-3.44-1.66-4.52c-1.11-1.08-2.64-1.61-4.59-1.61h-3.4v12.24h3.4Z"/>
          <path d="M176.62,42.34h-7.84l-1.42,3.92h-4.67l7.84-20.23h4.69l7.84,20.23h-5.04l-1.41-3.92Zm-1.39-3.92l-2.53-7.05-2.53,7.05h5.06Z"/>
          <path d="M191.79,39.91v6.35h-4.52v-6.35l-7.57-13.88h5.16l4.86,9.56,4.84-9.56h4.79l-7.57,13.88Z"/>
          <path d="M42.12,68.65c-1.65-.92-2.94-2.18-3.87-3.8-.94-1.61-1.4-3.43-1.4-5.45s.47-3.84,1.4-5.45c.93-1.61,2.23-2.88,3.87-3.8,1.65-.92,3.5-1.38,5.55-1.38,1.8,0,3.42,.33,4.85,.99,1.43,.66,2.59,1.57,3.49,2.73,.89,1.16,1.48,2.46,1.76,3.9h-4.57c-.25-.99-.86-1.82-1.85-2.48-.98-.66-2.18-.99-3.59-.99-1.21,0-2.3,.28-3.28,.83-.98,.55-1.74,1.32-2.3,2.31-.55,.98-.83,2.1-.83,3.34s.28,2.33,.83,3.33c.55,.99,1.32,1.77,2.3,2.32,.98,.55,2.07,.83,3.28,.83,.93,0,1.8-.18,2.62-.55,.82-.36,1.5-.84,2.04-1.42,.54-.58,.86-1.17,.98-1.79h4.57c-.22,1.37-.79,2.66-1.71,3.87-.93,1.21-2.14,2.18-3.64,2.92-1.5,.74-3.15,1.1-4.95,1.1-2.05,0-3.9-.46-5.55-1.38Z"/>
          <path d="M65.01,68.65c-1.66-.92-2.97-2.18-3.91-3.8-.94-1.61-1.41-3.43-1.41-5.45s.47-3.84,1.41-5.45c.94-1.61,2.25-2.88,3.91-3.8,1.66-.92,3.53-1.38,5.6-1.38s3.93,.46,5.6,1.38c1.66,.92,2.97,2.18,3.91,3.8,.94,1.61,1.41,3.43,1.41,5.45s-.47,3.84-1.41,5.45c-.94,1.61-2.25,2.88-3.91,3.8-1.66,.92-3.53,1.38-5.6,1.38s-3.93-.46-5.6-1.38Zm8.87-3.54c.98-.56,1.74-1.34,2.3-2.35,.55-1,.83-2.12,.83-3.36s-.28-2.38-.83-3.38c-.55-.99-1.32-1.77-2.3-2.33-.98-.56-2.07-.84-3.28-.84s-2.3,.28-3.28,.84c-.98,.56-1.74,1.34-2.3,2.33-.55,.99-.83,2.12-.83,3.38s.28,2.36,.83,3.36c.55,1,1.32,1.78,2.3,2.35,.98,.56,2.07,.84,3.28,.84s2.3-.28,3.28-.84Z"/>
          <path d="M84.21,49.31h14.84v3.97h-10.33v4.59h9.18v3.92h-9.18v7.74h-4.52v-20.23Z"/>
          <path d="M101.54,49.31h14.84v3.97h-10.33v4.59h9.18v3.92h-9.18v7.74h-4.52v-20.23Z"/>
          <path d="M118.86,49.31h15.04v3.92h-10.52v4.12h9.66v3.92h-9.66v4.34h10.75v3.92h-15.27v-20.23Z"/>
          <path d="M137.15,49.31h15.04v3.92h-10.52v4.12h9.66v3.92h-9.66v4.34h10.75v3.92h-15.27v-20.23Z"/>
          <path d="M180.37,49.31v20.23h-4.52v-8.22h-8.94v8.22h-4.52v-20.23h4.52v8.02h8.94v-8.02h4.52Z"/>
          <path d="M188.38,68.65c-1.66-.92-2.97-2.18-3.91-3.8-.94-1.61-1.42-3.43-1.42-5.45s.47-3.84,1.42-5.45c.94-1.61,2.25-2.88,3.91-3.8,1.66-.92,3.53-1.38,5.6-1.38s3.93,.46,5.6,1.38,2.97,2.18,3.91,3.8c.94,1.61,1.41,3.43,1.41,5.45s-.47,3.84-1.41,5.45c-.94,1.61-2.25,2.88-3.91,3.8-1.66,.92-3.53,1.38-5.6,1.38s-3.93-.46-5.6-1.38Zm8.87-3.54c.98-.56,1.74-1.34,2.3-2.35,.55-1,.83-2.12,.83-3.36s-.28-2.38-.83-3.38c-.55-.99-1.32-1.77-2.3-2.33-.98-.56-2.07-.84-3.28-.84s-2.3,.28-3.28,.84c-.98,.56-1.74,1.34-2.3,2.33-.55,.99-.83,2.12-.83,3.38s.28,2.36,.83,3.36c.55,1,1.32,1.78,2.3,2.35,.98,.56,2.07,.84,3.28,.84s2.3-.28,3.28-.84Z"/>
          <path d="M207.33,49.31h4.52v11.27c0,1.62,.43,2.92,1.28,3.91,.85,.98,2.01,1.48,3.46,1.48s2.61-.49,3.46-1.48c.85-.98,1.28-2.29,1.28-3.91v-11.27h4.52v11.27c0,1.89-.38,3.55-1.15,4.98-.77,1.43-1.85,2.54-3.25,3.31-1.4,.78-3.02,1.17-4.85,1.17s-3.45-.39-4.85-1.17c-1.4-.78-2.48-1.88-3.25-3.31s-1.15-3.09-1.15-4.98v-11.27Z"/>
          <path d="M241.08,49.65c1.21,.56,2.17,1.34,2.89,2.35,.72,1,1.11,2.14,1.18,3.41h-4.67c-.13-.89-.52-1.59-1.17-2.08s-1.51-.74-2.58-.74-1.83,.19-2.41,.56c-.58,.37-.87,.87-.87,1.5,0,.5,.18,.9,.55,1.22,.36,.31,.92,.59,1.68,.83,.75,.24,1.85,.51,3.29,.81,2.23,.46,3.84,1.23,4.8,2.3,.97,1.07,1.45,2.4,1.45,4.01,0,1.26-.36,2.36-1.08,3.3-.72,.94-1.7,1.67-2.94,2.17-1.24,.5-2.62,.76-4.15,.76-1.65,0-3.14-.29-4.46-.86-1.32-.57-2.36-1.39-3.13-2.44-.77-1.06-1.19-2.3-1.25-3.72h4.64c.13,.98,.6,1.76,1.4,2.35,.8,.59,1.84,.88,3.11,.88,.93,0,1.69-.21,2.3-.62,.6-.41,.91-.95,.91-1.61,0-.53-.16-.97-.48-1.32s-.84-.65-1.54-.89c-.7-.25-1.68-.49-2.94-.72-2.27-.43-3.96-1.15-5.09-2.16-1.13-1.01-1.69-2.43-1.69-4.27,0-1.19,.36-2.23,1.08-3.1,.72-.88,1.7-1.55,2.94-2.02,1.24-.47,2.63-.71,4.17-.71s2.84,.28,4.05,.84Z"/>
          <path d="M247.89,49.31h15.04v3.92h-10.52v4.12h9.66v3.92h-9.66v4.34h10.75v3.92h-15.27v-20.23Z"/>
        </g>
        <path class="cls-3" d="M73.82,59.6c0,.21-1.98,.11-2.05,.3s1.6,1.28,1.48,1.45-1.67-1.08-1.84-.96,.55,1.98,.35,2.04-.71-1.85-.92-1.85-.73,1.92-.92,1.85,.51-1.92,.35-2.04-1.71,1.13-1.84,.96,1.54-1.25,1.48-1.45-2.05-.09-2.05-.3,1.98-.11,2.05-.3-1.6-1.28-1.48-1.45,1.67,1.08,1.84,.96-.55-1.98-.35-2.04,.71,1.85,.92,1.85,.73-1.92,.92-1.85-.51,1.92-.35,2.04,1.71-1.13,1.84-.96-1.54,1.25-1.48,1.45,2.05,.09,2.05,.3Z"/>
        <path class="cls-3" d="M197.19,59.6c0,.21-1.98,.11-2.05,.3s1.6,1.28,1.48,1.45-1.67-1.08-1.84-.96,.55,1.98,.35,2.04-.71-1.85-.92-1.85-.73,1.92-.92,1.85,.51-1.92,.35-2.04-1.71,1.13-1.84,.96,1.54-1.25,1.48-1.45-2.05-.09-2.05-.3,1.98-.11,2.05-.3-1.6-1.28-1.48-1.45,1.67,1.08,1.84,.96-.55-1.98-.35-2.04,.71,1.85,.92,1.85,.73-1.92,.92-1.85-.51,1.92-.35,2.04,1.71-1.13,1.84-.96-1.54,1.25-1.48,1.45,2.05,.09,2.05,.3Z"/>
      </g>
    </g>
  </g>
</svg>